<svg width="48" height="48" viewBox="0 0 48 48" fill="none" xmlns="http://www.w3.org/2000/svg">
<path fill-rule="evenodd" clip-rule="evenodd" d="M4 24C4 12.9543 12.9543 4 24 4C35.0457 4 44 12.9543 44 24C44 35.0457 35.0457 44 24 44C12.9543 44 4 35.0457 4 24ZM31.4142 21.4142C32.1953 20.6332 32.1953 19.3668 31.4142 18.5858C30.6332 17.8047 29.3668 17.8047 28.5858 18.5858L22 25.1716L18.4142 21.5858C17.6332 20.8047 16.3668 20.8047 15.5858 21.5858C14.8047 22.3668 14.8047 23.6332 15.5858 24.4142L20.5858 29.4142C21.3668 30.1953 22.6332 30.1953 23.4142 29.4142L31.4142 21.4142Z" fill="#7E3AF2"/>
</svg>
