<svg width="48" height="48" viewBox="0 0 48 48" fill="none" xmlns="http://www.w3.org/2000/svg">
<path fill-rule="evenodd" clip-rule="evenodd" d="M6 8C4.89543 8 4 8.89543 4 10V38C4 39.1046 4.89543 40 6 40H42C43.1046 40 44 39.1046 44 38V10C44 8.89543 43.1046 8 42 8H6ZM14.5858 19.4142C13.8047 18.6332 13.8047 17.3668 14.5858 16.5858C15.3668 15.8047 16.6332 15.8047 17.4142 16.5858L23.4142 22.5858C24.1953 23.3668 24.1953 24.6332 23.4142 25.4142L17.4142 31.4142C16.6332 32.1953 15.3668 32.1953 14.5858 31.4142C13.8047 30.6332 13.8047 29.3668 14.5858 28.5858L19.1716 24L14.5858 19.4142ZM26 28C24.8954 28 24 28.8954 24 30C24 31.1046 24.8954 32 26 32H32C33.1046 32 34 31.1046 34 30C34 28.8954 33.1046 28 32 28H26Z" fill="#7E3AF2"/>
</svg>
