<svg width="48" height="48" viewBox="0 0 48 48" fill="none" xmlns="http://www.w3.org/2000/svg">
<path d="M21.6 14.4C21.6 16.3096 20.8415 18.1409 19.4912 19.4912C18.1409 20.8414 16.3096 21.6 14.4 21.6C12.4905 21.6 10.6591 20.8414 9.30886 19.4912C7.95859 18.1409 7.20002 16.3096 7.20002 14.4C7.20002 12.4905 7.95859 10.6591 9.30886 9.30884C10.6591 7.95858 12.4905 7.20001 14.4 7.20001C16.3096 7.20001 18.1409 7.95858 19.4912 9.30884C20.8415 10.6591 21.6 12.4905 21.6 14.4ZM40.8 14.4C40.8 15.3455 40.6138 16.2818 40.252 17.1553C39.8901 18.0289 39.3598 18.8226 38.6912 19.4912C38.0226 20.1598 37.2289 20.6901 36.3553 21.0519C35.4818 21.4138 34.5455 21.6 33.6 21.6C32.6545 21.6 31.7182 21.4138 30.8447 21.0519C29.9712 20.6901 29.1774 20.1598 28.5089 19.4912C27.8403 18.8226 27.3099 18.0289 26.9481 17.1553C26.5863 16.2818 26.4 15.3455 26.4 14.4C26.4 12.4905 27.1586 10.6591 28.5089 9.30884C29.8591 7.95858 31.6905 7.20001 33.6 7.20001C35.5096 7.20001 37.3409 7.95858 38.6912 9.30884C40.0415 10.6591 40.8 12.4905 40.8 14.4ZM31.032 40.8C31.1424 40.0152 31.2 39.216 31.2 38.4C31.2056 34.6293 29.937 30.9673 27.6 28.008C29.4242 26.9548 31.4935 26.4003 33.5999 26.4003C35.7064 26.4003 37.7757 26.9548 39.5999 28.0079C41.4241 29.0611 42.939 30.5759 43.9922 32.4001C45.0455 34.2243 45.6 36.2936 45.6 38.4V40.8H31.032ZM14.4 26.4C17.5826 26.4 20.6349 27.6643 22.8853 29.9147C25.1357 32.1652 26.4 35.2174 26.4 38.4V40.8H2.40002V38.4C2.40002 35.2174 3.66431 32.1652 5.91474 29.9147C8.16518 27.6643 11.2174 26.4 14.4 26.4Z" fill="#7E3AF2"/>
</svg>
